<svg width="20" height="22" viewBox="0 0 20 22" fill="none" xmlns="http://www.w3.org/2000/svg">
<path d="M12.7097 9.6601C11.9067 10.2082 10.9637 10.5 10 10.5C8.70798 10.5 7.46668 9.97585 6.54978 9.0393C5.63253 8.1024 5.11538 6.82946 5.11538 5.5C5.11538 4.50876 5.4032 3.54063 5.94128 2.71808C6.47928 1.89565 7.24286 1.25627 8.13422 0.879147C9.02546 0.502072 10.0055 0.403589 10.9509 0.595672C11.8964 0.78777 12.7664 1.26221 13.4502 1.9607C14.1342 2.65931 14.6011 3.55066 14.7904 4.52258C14.9797 5.49455 14.8824 6.50192 14.5114 7.41686C14.1404 8.33171 13.5128 9.11195 12.7097 9.6601ZM0.5 18.8571C0.5 17.0641 1.93397 15.6204 3.97333 14.5934C5.98788 13.5788 8.41102 13.0714 10 13.0714C11.589 13.0714 14.0121 13.5788 16.0267 14.5934C18.066 15.6204 19.5 17.0641 19.5 18.8571V21.5H0.5V18.8571Z" stroke="black"/>
</svg>
